<?xml version="1.0" encoding="UTF-8" standalone="no"?>
<!-- Created with Inkscape (http://www.inkscape.org/) -->

<svg
   xmlns:dc="http://purl.org/dc/elements/1.1/"
   xmlns:cc="http://creativecommons.org/ns#"
   xmlns:rdf="http://www.w3.org/1999/02/22-rdf-syntax-ns#"
   xmlns:svg="http://www.w3.org/2000/svg"
   xmlns="http://www.w3.org/2000/svg"
   xmlns:sodipodi="http://sodipodi.sourceforge.net/DTD/sodipodi-0.dtd"
   xmlns:inkscape="http://www.inkscape.org/namespaces/inkscape"
   width="301.18109"
   height="194.8819"
   id="svg6173"
   version="1.1"
   inkscape:version="0.48.4 r9939"
   sodipodi:docname="nowhere-kitchen-card-back-shure.svg">
  <defs
     id="defs6175">
    <clipPath
       clipPathUnits="userSpaceOnUse"
       id="clipPath290">
      <path
         inkscape:connector-curvature="0"
         d="m 0,1600 3200,0 L 3200,0 0,0 0,1600 z"
         id="path292" />
    </clipPath>
    <clipPath
       clipPathUnits="userSpaceOnUse"
       id="clipPath298">
      <path
         inkscape:connector-curvature="0"
         d="m 372.3,1463.94 2465.1,0 0,-1252.925 -2465.1,0 0,1252.925 z"
         id="path300" />
    </clipPath>
    <clipPath
       clipPathUnits="userSpaceOnUse"
       id="clipPath566">
      <path
         inkscape:connector-curvature="0"
         d="m 0,1600 3200,0 L 3200,0 0,0 0,1600 z"
         id="path568" />
    </clipPath>
    <clipPath
       clipPathUnits="userSpaceOnUse"
       id="clipPath290-2">
      <path
         inkscape:connector-curvature="0"
         d="m 0,1600 3200,0 L 3200,0 0,0 0,1600 z"
         id="path292-0" />
    </clipPath>
    <clipPath
       clipPathUnits="userSpaceOnUse"
       id="clipPath298-9">
      <path
         inkscape:connector-curvature="0"
         d="m 372.3,1463.94 2465.1,0 0,-1252.925 -2465.1,0 0,1252.925 z"
         id="path300-6" />
    </clipPath>
    <clipPath
       clipPathUnits="userSpaceOnUse"
       id="clipPath1634">
      <path
         inkscape:connector-curvature="0"
         d="m 0,1600 3200,0 L 3200,0 0,0 0,1600 z"
         id="path1636" />
    </clipPath>
  </defs>
  <sodipodi:namedview
     id="base"
     pagecolor="#ffffff"
     bordercolor="#666666"
     borderopacity="1.0"
     inkscape:pageopacity="0.0"
     inkscape:pageshadow="2"
     inkscape:zoom="1.9124707"
     inkscape:cx="246.30599"
     inkscape:cy="99.929479"
     inkscape:document-units="mm"
     inkscape:current-layer="layer1"
     showgrid="false"
     units="mm"
     width="85mm"
     borderlayer="false"
     inkscape:window-width="1280"
     inkscape:window-height="757"
     inkscape:window-x="0"
     inkscape:window-y="25"
     inkscape:window-maximized="1"
     showguides="true"
     inkscape:guide-bbox="true">
    <sodipodi:guide
       orientation="1,0"
       position="14.173228,181.82746"
       id="guide13658" />
    <sodipodi:guide
       orientation="0,1"
       position="-17.172593,14.173228"
       id="guide13660" />
    <sodipodi:guide
       orientation="1,0"
       position="287.00787,130.30866"
       id="guide13662" />
    <sodipodi:guide
       orientation="0,1"
       position="81.31728,180.70866"
       id="guide13664" />
  </sodipodi:namedview>
  <metadata
     id="metadata6178">
    <rdf:RDF>
      <cc:Work
         rdf:about="">
        <dc:format>image/svg+xml</dc:format>
        <dc:type
           rdf:resource="http://purl.org/dc/dcmitype/StillImage" />
        <dc:title />
      </cc:Work>
    </rdf:RDF>
  </metadata>
  <g
     inkscape:label="Layer 1"
     inkscape:groupmode="layer"
     id="layer1"
     transform="translate(0,-857.48031)">
    <g
       transform="matrix(0.05467871,0,0,-0.05467871,137.25901,946.95112)"
       id="g286">
      <g
         id="g288"
         clip-path="url(#clipPath290-2)">
        <g
           id="g294">
          <g
             id="g296" />
          <g
             id="g302">
            <g
               style="opacity:0.10000598"
               clip-path="url(#clipPath298-9)"
               id="g304">
              <g
                 transform="translate(1334.9619,937.6143)"
                 id="g306">
                <path
                   inkscape:connector-curvature="0"
                   d="m 0,0 c 1.569,-2.232 2.568,-5.277 4.791,-6.568 41.95,-24.393 27.782,-75.743 -7.45,-93.893 -19.337,-9.965 -40.464,-12.002 -62.726,-8.779 -32.1,4.64 -66.268,34.576 -70.617,63.597 -3.47,23.112 33.837,62.676 59.418,61.817 19.531,-0.662 39.876,5.558 58.512,-4.694 C -14.408,4.551 -8.877,0.072 0,0"
                   style="fill:#030303;fill-opacity:1;fill-rule:evenodd;stroke:none"
                   id="path308" />
              </g>
              <g
                 transform="translate(1370.6348,720.333)"
                 id="g310">
                <path
                   inkscape:connector-curvature="0"
                   d="m 0,0 c 7.417,24.422 16.755,48.559 45.054,61.65 27.78,12.856 53.818,9.59 77.9,-7.129 20.569,-14.291 27.905,-67.619 12.731,-86.484 C 116.547,-55.766 63.62,-63.473 37.162,-44.559 21.307,-33.225 -7.717,-29.807 0,0"
                   style="fill:#030303;fill-opacity:1;fill-rule:evenodd;stroke:none"
                   id="path312" />
              </g>
              <g
                 transform="translate(1479.0562,890.1904)"
                 id="g314">
                <path
                   inkscape:connector-curvature="0"
                   d="m 0,0 c 0.748,33.193 27.709,55.348 65.061,55.822 42.857,0.555 66.641,-38.066 68.244,-74.724 0.637,-14.477 -26.01,-43.315 -38.799,-42.838 C 38.947,-59.666 -6.575,-34.514 0,0"
                   style="fill:#030303;fill-opacity:1;fill-rule:evenodd;stroke:none"
                   id="path316" />
              </g>
              <g
                 transform="translate(1469.2324,1019.04)"
                 id="g318">
                <path
                   inkscape:connector-curvature="0"
                   d="m 0,0 c -10.04,-34.832 -49.36,-51.041 -81.285,-32.236 -17.048,10.054 -19.85,28.681 -24.07,45.257 -5.935,23.321 14.551,61.018 37.959,72.426 C -28.649,84.131 14.086,43.496 0,0"
                   style="fill:#030303;fill-opacity:1;fill-rule:evenodd;stroke:none"
                   id="path320" />
              </g>
              <g
                 transform="translate(1227.7056,668.7139)"
                 id="g322">
                <path
                   inkscape:connector-curvature="0"
                   d="m 0,0 c -24.42,-10.299 -47.843,-1.619 -70.844,4.486 -4.047,1.073 -5.494,11.657 -7.354,18.041 -8.54,29.278 1.693,61.909 23.475,76.239 2.166,1.423 2.405,5.599 6.288,4.564 28.619,-7.656 60.73,-7.496 82.557,-30.445 2.879,-3.026 1.701,-6.262 -1.199,-8.996 C 30.62,38.861 24.085,15.654 0,0"
                   style="fill:#030303;fill-opacity:1;fill-rule:evenodd;stroke:none"
                   id="path324" />
              </g>
              <g
                 transform="translate(1638.7539,1085.3252)"
                 id="g326">
                <path
                   inkscape:connector-curvature="0"
                   d="m 0,0 c 27.916,0.691 51.455,-17.781 57.941,-45.467 6.926,-29.551 -4.13,-49.064 -32.261,-56.949 -12.153,-3.406 -69.483,21.145 -74.547,31.926 C -65.221,-35.645 -41.223,-1.02 0,0"
                   style="fill:#040404;fill-opacity:1;fill-rule:evenodd;stroke:none"
                   id="path328" />
              </g>
              <g
                 transform="translate(984.1816,662.1143)"
                 id="g330">
                <path
                   inkscape:connector-curvature="0"
                   d="M 0,0 C 0.467,19.973 25.893,36.313 55.988,35.977 80.526,35.715 114.843,6.016 114.229,-14.408 113.331,-44.055 92.49,-68.898 68.315,-66.375 26.547,-62.002 -1.699,-43.916 0,0"
                   style="fill:#040404;fill-opacity:1;fill-rule:evenodd;stroke:none"
                   id="path332" />
              </g>
              <g
                 transform="translate(1339.5273,590.9287)"
                 id="g334">
                <path
                   inkscape:connector-curvature="0"
                   d="m 0,0 c 27.871,-5.064 44.907,-25.559 42.119,-49.756 -0.917,-7.988 -0.708,-16.224 0.238,-24.219 2.03,-17.238 -12.217,-30.519 -30.658,-27.685 -5.084,0.779 -10.078,2.119 -15.045,3.394 -49.97,12.856 -62.941,53.645 -28.934,90.938 C -22.937,0.322 -11.323,-0.359 0,0"
                   style="fill:#030303;fill-opacity:1;fill-rule:evenodd;stroke:none"
                   id="path336" />
              </g>
              <g
                 transform="translate(1785.9805,1197.6836)"
                 id="g338">
                <path
                   inkscape:connector-curvature="0"
                   d="m 0,0 c -0.193,-24.475 -17.658,-49.511 -38.09,-57.235 -12.23,-4.629 -38.57,6.171 -44.978,16.994 -10.745,18.166 -7.424,36.942 -3.674,55.424 1.767,8.774 8.285,15.113 21.013,13.152 13.879,-2.132 27.938,-3.21 41.899,-5.277 C -6.477,20.509 4.689,15.773 0,0"
                   style="fill:#050505;fill-opacity:1;fill-rule:evenodd;stroke:none"
                   id="path340" />
              </g>
              <g
                 transform="translate(1760.0098,932.1299)"
                 id="g342">
                <path
                   inkscape:connector-curvature="0"
                   d="M 0,0 C 27.695,-0.27 55.975,-22.414 56.514,-44.27 56.938,-61.494 29.9,-87.936 11.629,-88.168 -7.201,-88.4 -37.156,-54.066 -35.813,-33.779 -34.92,-20.193 -13.363,0.119 0,0"
                   style="fill:#070707;fill-opacity:1;fill-rule:evenodd;stroke:none"
                   id="path344" />
              </g>
              <g
                 transform="translate(1139.314,970.6982)"
                 id="g346">
                <path
                   inkscape:connector-curvature="0"
                   d="m 0,0 c -3.793,-24.398 -16.439,-46.615 -19.494,-71.586 -1.485,-12.074 -21.812,-9.977 -29.822,-6.807 -21.425,8.487 -37.346,69.762 -21.97,85.243 11.633,11.716 29.881,16.046 48.031,16.398 C -13.048,17.553 -8.644,7.006 0,0"
                   style="fill:#080808;fill-opacity:1;fill-rule:evenodd;stroke:none"
                   id="path348" />
              </g>
              <g
                 transform="translate(1555.9922,540.3916)"
                 id="g350">
                <path
                   inkscape:connector-curvature="0"
                   d="m 0,0 c 0.439,-33.902 -23.644,-53.668 -56.379,-47.025 -10.824,2.199 -14.468,13.484 -17.917,21.312 -11.568,26.297 -14.104,57.682 30.01,59.145 11.849,0.384 23.54,15.664 35.343,-1.577 C -1.584,21.111 4.869,11.059 0,0"
                   style="fill:#050505;fill-opacity:1;fill-rule:evenodd;stroke:none"
                   id="path352" />
              </g>
              <g
                 transform="translate(892.4888,951.1064)"
                 id="g354">
                <path
                   inkscape:connector-curvature="0"
                   d="M 0,0 C 0.552,8.055 -0.616,16.619 2.068,24.023 5.726,34.115 10.654,45.949 27.035,35.27 30.277,33.148 35.432,33.297 39.764,32.762 52.396,31.189 69.327,34.523 73.452,19.908 79.903,-2.883 84.138,-28.154 63.926,-46.447 56.916,-52.793 36.378,-53 26.244,-48.33 15.667,-43.465 1.959,-35.029 1.128,-20.27 0.745,-13.539 1.058,-6.777 1.058,-0.035 0.707,-0.018 0.35,-0.012 0,0"
                   style="fill:#040404;fill-opacity:1;fill-rule:evenodd;stroke:none"
                   id="path356" />
              </g>
              <g
                 transform="translate(811.0298,808.2217)"
                 id="g358">
                <path
                   inkscape:connector-curvature="0"
                   d="m 0,0 c -4.969,-8.617 7.229,-24.553 -8.542,-31.928 -20.147,-9.41 -41.353,-2.037 -58.497,6.797 -17.989,9.264 -14.897,54.777 3.929,63.682 9.066,4.293 6.835,19.217 24.344,15.691 C -9.943,48.434 -1.116,39.385 0,0"
                   style="fill:#050505;fill-opacity:1;fill-rule:evenodd;stroke:none"
                   id="path360" />
              </g>
              <g
                 transform="translate(960.2393,541.626)"
                 id="g362">
                <path
                   inkscape:connector-curvature="0"
                   d="M 0,0 C 25.745,-0.918 26.193,-21.717 30.499,-36.264 35.602,-53.52 24.325,-67.928 7.841,-76.893 -5.985,-84.404 -18.078,-77.225 -31.132,-71.775 -64.107,-57.998 -63.121,-28.061 -45.496,1.18 -30.309,1.293 -15.451,-9.043 0,0"
                   style="fill:#090909;fill-opacity:1;fill-rule:evenodd;stroke:none"
                   id="path364" />
              </g>
              <g
                 transform="translate(1622.1992,734.8975)"
                 id="g366">
                <path
                   inkscape:connector-curvature="0"
                   d="M 0,0 C 0.557,35.982 13.066,39.254 51.67,30.4 80.402,23.82 81.045,7.367 82.971,-11.293 84.307,-24.232 63.33,-42.154 48.441,-42.369 43.473,-42.441 38.053,-44.131 34.738,-38.789 25.23,-23.463 -10.863,-26.619 0,0"
                   style="fill:#050505;fill-opacity:1;fill-rule:evenodd;stroke:none"
                   id="path368" />
              </g>
              <g
                 transform="translate(1057.1797,789.4365)"
                 id="g370">
                <path
                   inkscape:connector-curvature="0"
                   d="m 0,0 c 0.077,-15.012 -16.023,-25.709 -38.234,-25.41 -19.176,0.248 -40.821,29.615 -39.473,53.541 0.519,9.156 28.449,25.508 44.478,26.029 C -10.915,54.889 -0.169,37.371 0,0"
                   style="fill:#0b0b0b;fill-opacity:1;fill-rule:evenodd;stroke:none"
                   id="path372" />
              </g>
              <g
                 transform="translate(2255.3594,1086.7666)"
                 id="g374">
                <path
                   inkscape:connector-curvature="0"
                   d="m 0,0 c 19.834,-0.102 44.957,-30.867 36.74,-47.074 -3.676,-7.25 6.332,-12.586 -1.601,-20.194 -10.602,-10.166 -43.239,-14.045 -55.241,-1.293 -11.855,12.594 -19.832,29.194 -16.9,46.104 C -33.998,-5.152 -17.607,-0.428 0,0"
                   style="fill:#0c0c0c;fill-opacity:1;fill-rule:evenodd;stroke:none"
                   id="path376" />
              </g>
              <g
                 transform="translate(1827.457,1014.3076)"
                 id="g378">
                <path
                   inkscape:connector-curvature="0"
                   d="m 0,0 c 10.213,13.65 4.266,30.08 11.914,43.664 5.322,9.453 11.004,14.303 24.52,9.27 C 53.414,46.607 76.316,51.945 80.568,25.818 83.148,9.891 86.051,-2.85 65.656,-9.115 59.748,-10.932 64.854,-24.209 57.025,-19.76 40.576,-10.414 19.293,-19.598 4.852,-6.34 2.943,-4.588 1.691,-2.254 0,0"
                   style="fill:#080808;fill-opacity:1;fill-rule:evenodd;stroke:none"
                   id="path380" />
              </g>
              <g
                 transform="translate(849.0156,577.5322)"
                 id="g382">
                <path
                   inkscape:connector-curvature="0"
                   d="m 0,0 c -29.966,2.357 -51.391,17.564 -49.996,35.508 1.673,21.613 26.431,34.605 61.447,32.236 C 24.551,66.857 40.478,44.584 39.278,28.83 38.466,18.221 12.321,-0.969 0,0"
                   style="fill:#050505;fill-opacity:1;fill-rule:evenodd;stroke:none"
                   id="path384" />
              </g>
              <g
                 transform="translate(2096.6094,1172.7017)"
                 id="g386">
                <path
                   inkscape:connector-curvature="0"
                   d="m 0,0 c 1.838,10.299 -3.189,25.9 12.086,29.236 20.285,4.431 43.799,10.692 60.248,-7.69 9.771,-10.924 11.637,-24.923 4.111,-39.063 -10.802,-20.307 -16.74,-22.469 -40.476,-13.117 -4.639,1.829 -9.83,2.448 -14.719,3.777 C 6.932,-22.962 -6.271,-18.25 0,0"
                   style="fill:#060606;fill-opacity:1;fill-rule:evenodd;stroke:none"
                   id="path388" />
              </g>
              <g
                 transform="translate(1965.4238,929.7295)"
                 id="g390">
                <path
                   inkscape:connector-curvature="0"
                   d="m 0,0 c 15.365,0.016 27.43,-4.973 31.068,-20.043 1.162,-4.836 1.53,-8.006 7.745,-10.389 9.681,-3.705 12.546,-11.586 5.777,-19.81 -3.82,-4.641 -1.822,-8.514 -1.551,-13.143 0.635,-10.668 2.393,-24.599 -16.639,-10.73 -1.478,1.07 -4.314,1.361 -6.271,0.986 -11.82,-2.269 -23.24,-6.045 -32.752,5.731 -12.42,15.38 -18.631,31.742 -15.453,50.941 C -25.527,-1.033 -13.701,0.465 0,0"
                   style="fill:#060606;fill-opacity:1;fill-rule:evenodd;stroke:none"
                   id="path392" />
              </g>
              <g
                 transform="translate(984.4736,1116.8838)"
                 id="g394">
                <path
                   inkscape:connector-curvature="0"
                   d="M 0,0 C 26.289,1.518 37.668,-9.723 41.482,-40.947 42.974,-53.121 17.658,-78.742 2.354,-80.539 -9.169,-81.898 -27.138,-58.35 -28.558,-40.029 -30.803,-11.021 -23.922,-1.383 0,0"
                   style="fill:#070707;fill-opacity:1;fill-rule:evenodd;stroke:none"
                   id="path396" />
              </g>
              <g
                 transform="translate(2095.2578,1029.5303)"
                 id="g398">
                <path
                   inkscape:connector-curvature="0"
                   d="m 0,0 c 10.363,-15.107 -6.748,-22.748 -16.061,-29.127 -10.894,-7.475 -21.679,2.883 -33.044,7.965 -23.053,10.308 -22.249,28.215 -19.461,44.207 2.568,14.756 19.123,20.437 35.449,22.184 C -22.949,46.313 0.682,24.117 1.588,11.801 1.836,8.506 0.74,5.115 0,0"
                   style="fill:#080808;fill-opacity:1;fill-rule:evenodd;stroke:none"
                   id="path400" />
              </g>
              <g
                 transform="translate(2427.9922,1026.7139)"
                 id="g402">
                <path
                   inkscape:connector-curvature="0"
                   d="m 0,0 c -25.459,5.057 -17.209,23.629 -16.854,37.773 0.286,11.737 5.92,22.637 20.778,25.637 17.605,3.547 32.461,-1.178 42.019,-15.092 3.282,-4.777 6.465,-9.339 10.02,-13.949 C 69.906,16.254 58.984,-1.645 32.295,-6.855 22.469,-0.871 10.674,-2.646 0,0"
                   style="fill:#080808;fill-opacity:1;fill-rule:evenodd;stroke:none"
                   id="path404" />
              </g>
              <g
                 transform="translate(794.4663,974.1592)"
                 id="g406">
                <path
                   inkscape:connector-curvature="0"
                   d="m 0,0 c 16.621,-12.842 19.421,-31.338 19.72,-48.82 0.337,-18.977 -20.809,-17.078 -33.46,-19.002 -10.668,-1.631 -22.729,5.584 -24.83,17.703 -2.659,15.344 -3.561,30.969 11.446,42.654 C -19.434,-0.863 -12.365,7.605 0,0"
                   style="fill:#0a0a0a;fill-opacity:1;fill-rule:evenodd;stroke:none"
                   id="path408" />
              </g>
              <g
                 transform="translate(798.623,517.0791)"
                 id="g410">
                <path
                   inkscape:connector-curvature="0"
                   d="m 0,0 c -2.6,-23.826 -16.606,-34.764 -44.4,-30.719 -12.165,1.772 -23.091,10.33 -21.042,24.465 4.046,28.002 19.901,40.463 44.75,36.061 C -10.583,21.73 -2.34,12.582 0,0"
                   style="fill:#0b0b0b;fill-opacity:1;fill-rule:evenodd;stroke:none"
                   id="path412" />
              </g>
              <g
                 transform="translate(860.8433,736.1787)"
                 id="g414">
                <path
                   inkscape:connector-curvature="0"
                   d="M 0,0 C 0.448,17.395 18.021,40.037 30.607,39.443 41.352,38.932 66,7.82 62.655,-3.963 59.685,-14.469 55.14,-26.83 39.434,-27.268 18.125,-27.865 -0.376,-14.582 0,0"
                   style="fill:#0c0c0c;fill-opacity:1;fill-rule:evenodd;stroke:none"
                   id="path416" />
              </g>
              <g
                 transform="translate(2194.0801,877.4678)"
                 id="g418">
                <path
                   inkscape:connector-curvature="0"
                   d="m 0,0 c -4.227,-5.158 9.299,-19.498 -4.25,-20.455 -16.328,-1.158 -35.223,-3.479 -50.125,6.391 -11.094,7.351 -11.387,19.388 -10.043,31.021 0.588,5.105 5.328,5.23 9.232,7.084 14.358,6.787 30.407,2.018 45.307,6.396 7.244,2.12 10.9,-5.718 11.207,-12.222 C 1.582,12.877 0.6,7.504 0,0"
                   style="fill:#0a0a0a;fill-opacity:1;fill-rule:evenodd;stroke:none"
                   id="path420" />
              </g>
              <g
                 transform="translate(875.1226,1056.5361)"
                 id="g422">
                <path
                   inkscape:connector-curvature="0"
                   d="m 0,0 c -14.545,-14.039 -41.275,-15.938 -57.622,-4.09 0.479,8.182 -7.146,13.192 -9.475,20.276 -1.186,6.677 -2.367,13.355 -3.553,20.025 2.613,9.543 7.943,16.256 19.972,13.344 10.583,-2.575 18.858,8.447 29.506,3.466 C -9.422,47.57 1.933,41.787 4.17,28.217 -0.317,23.535 -5.271,18.973 1.499,12.623 6.503,7.936 8.041,3.463 0,0"
                   style="fill:#0d0d0d;fill-opacity:1;fill-rule:evenodd;stroke:none"
                   id="path424" />
              </g>
              <g
                 transform="translate(1161.2441,504.6787)"
                 id="g426">
                <path
                   inkscape:connector-curvature="0"
                   d="m 0,0 c -22.708,-5.654 -41.463,1.037 -48.841,17.422 -6.369,14.14 1.684,32.279 17.106,39.021 3.896,1.703 6.964,1.096 9.953,-1.371 C 6.647,37.246 11.312,25.463 0,0"
                   style="fill:#0f0f0f;fill-opacity:1;fill-rule:evenodd;stroke:none"
                   id="path428" />
              </g>
              <g
                 transform="translate(527.7822,258.8682)"
                 id="g430">
                <path
                   inkscape:connector-curvature="0"
                   d="m 0,0 c -15.069,1.498 -21.666,13.602 -31.463,21.814 11.238,6.887 -3.19,28.456 19.409,28.665 16.192,0.148 38,-14.081 34.017,-24.155 C 18.189,16.799 21.879,-1.623 0,0"
                   style="fill:#181818;fill-opacity:1;fill-rule:evenodd;stroke:none"
                   id="path432" />
              </g>
              <g
                 transform="translate(531.6343,1133.4248)"
                 id="g434">
                <path
                   inkscape:connector-curvature="0"
                   d="M 0,0 C 0.694,15.499 14.967,31.535 26.205,28.097 34.33,25.613 44.206,17.489 42.04,9.532 39.258,-0.68 40.244,-17.43 22.936,-17.404 13.248,-17.398 -5.356,-18.543 0,0"
                   style="fill:#313131;fill-opacity:1;fill-rule:evenodd;stroke:none"
                   id="path436" />
              </g>
              <g
                 transform="translate(2411.7871,903.9795)"
                 id="g438">
                <path
                   inkscape:connector-curvature="0"
                   d="m 0,0 c -0.498,-4.693 -0.193,-9.607 -1.633,-14.051 -6.041,-18.578 -13.035,-21.16 -32.73,-13.457 -6.762,2.645 -14.473,3.362 -19.748,8.768 3.162,29.967 7.914,34.008 39.146,31.732 C -6.816,12.396 1.479,10.537 0,0"
                   style="fill:#101010;fill-opacity:1;fill-rule:evenodd;stroke:none"
                   id="path440" />
              </g>
              <g
                 transform="translate(676.9917,1152.5688)"
                 id="g442">
                <path
                   inkscape:connector-curvature="0"
                   d="M 0,0 C -0.559,7.273 -1.058,11.091 -1.104,14.905 -1.214,25.697 -2.86,40.516 8.104,43.792 15.692,46.056 29.122,36.872 37.63,30.313 47.396,22.79 42.227,10.746 40.683,1.43 39.024,-8.535 23.182,-4.634 20.237,-2.097 11.484,5.451 11.074,-6.885 0,0"
                   style="fill:#1e1e1e;fill-opacity:1;fill-rule:evenodd;stroke:none"
                   id="path444" />
              </g>
              <g
                 transform="translate(1469.2324,1019.04)"
                 id="g446">
                <path
                   inkscape:connector-curvature="0"
                   d="M 0,0 C -1.426,42.354 -26.088,69.383 -67.396,85.447 -29.214,93.818 -11.697,68.238 4.482,45.551 13.949,32.297 10.46,14.523 0,0"
                   style="fill:#616161;fill-opacity:1;fill-rule:evenodd;stroke:none"
                   id="path448" />
              </g>
              <g
                 transform="translate(829.6274,361.6318)"
                 id="g450">
                <path
                   inkscape:connector-curvature="0"
                   d="m 0,0 c 2.93,-9.131 -2.212,-16.131 -10.896,-15.975 -12.514,0.225 -27.435,-0.775 -34.134,13.27 -3.975,8.334 0.026,15.625 5.738,21.486 9.261,9.49 18.359,4.326 26.906,-1.804 C -4.942,13.336 -5.222,4.986 0,0"
                   style="fill:#111111;fill-opacity:1;fill-rule:evenodd;stroke:none"
                   id="path452" />
              </g>
              <g
                 transform="translate(2615.8789,1077.8076)"
                 id="g454">
                <path
                   inkscape:connector-curvature="0"
                   d="M 0,0 C 0.285,13.469 15.24,10.156 22.865,11.199 34.824,12.83 41.629,6.416 42.137,-7.088 42.838,-25.762 27.6,-23.646 17.178,-24.57 -1.131,-26.191 4.016,-10.553 0,0"
                   style="fill:#121212;fill-opacity:1;fill-rule:evenodd;stroke:none"
                   id="path456" />
              </g>
              <g
                 transform="translate(2810.6582,1130.2686)"
                 id="g458">
                <path
                   inkscape:connector-curvature="0"
                   d="M 0,0 C -4.791,10.375 -17.795,14.874 -15.479,26.417 -13.445,36.579 -1.791,39.48 4.312,46.657 13.514,38.919 28.449,37.562 26.58,19.25 24.596,-0.223 1.387,15.79 0,0"
                   style="fill:#090909;fill-opacity:1;fill-rule:evenodd;stroke:none"
                   id="path460" />
              </g>
              <g
                 transform="translate(2411.7871,903.9795)"
                 id="g462">
                <path
                   inkscape:connector-curvature="0"
                   d="m 0,0 c -11.16,9.078 -25.82,-1.078 -37.939,5.986 -4.768,2.77 -7.524,-3.353 -6.987,-7.384 1.061,-7.889 -4.142,-12.463 -9.185,-17.342 -11.571,28.765 -17.842,16.888 27.507,39.801 13.407,6.775 22.034,1.378 28.018,-9.834 C 3.529,7.271 2.906,3.49 0,0"
                   style="fill:#3e3e3e;fill-opacity:1;fill-rule:evenodd;stroke:none"
                   id="path464" />
              </g>
              <g
                 transform="translate(1161.2441,504.6787)"
                 id="g466">
                <path
                   inkscape:connector-curvature="0"
                   d="M 0,0 C -0.519,20.586 -11.308,37.775 -21.782,55.072 1.543,59.326 5.7,40.176 14.228,28.555 24.363,14.754 11.652,6.75 0,0"
                   style="fill:#444444;fill-opacity:1;fill-rule:evenodd;stroke:none"
                   id="path468" />
              </g>
              <g
                 transform="translate(674.6484,211.0146)"
                 id="g470">
                <path
                   inkscape:connector-curvature="0"
                   d="m 0,0 c -11.568,0.273 -23.539,2.646 -29.879,11.211 -7.043,9.506 -3.489,19.299 8.3,25.291 C -6.081,43.984 1.687,31.559 8.717,24.287 18.094,14.582 3.951,7.971 0,0"
                   style="fill:#282828;fill-opacity:1;fill-rule:evenodd;stroke:none"
                   id="path472" />
              </g>
              <g
                 transform="translate(491.2412,1451.4014)"
                 id="g474">
                <path
                   inkscape:connector-curvature="0"
                   d="M 0,0 C 3.671,13.099 18.936,9.101 28.034,12.325 33.643,14.313 45.023,1.782 39.933,-5.039 34.395,-12.455 22.236,-18.697 12.308,-19.639 0.811,-20.729 3.068,-8.184 0,0"
                   style="fill:#4a4a4a;fill-opacity:1;fill-rule:evenodd;stroke:none"
                   id="path476" />
              </g>
              <g
                 transform="translate(563.1885,1280.5576)"
                 id="g478">
                <path
                   inkscape:connector-curvature="0"
                   d="m 0,0 c 0.759,-8.465 14.733,-15.797 1.219,-25.709 -7.054,-5.17 -12.275,-9.185 -20.498,-2.96 -5.525,4.182 -11.244,8.148 -16.879,12.21 C -31.029,1.74 -17.619,4.729 0,0"
                   style="fill:#575757;fill-opacity:1;fill-rule:evenodd;stroke:none"
                   id="path480" />
              </g>
              <g
                 transform="translate(383.519,1320.4771)"
                 id="g482">
                <path
                   inkscape:connector-curvature="0"
                   d="m 0,0 c -2.568,6.004 -0.214,6.403 -5.305,16.906 -2.101,4.335 -5.953,3.115 -5.914,6.552 0.045,3.71 2.439,6.052 6.452,7.045 9.831,2.431 18.456,0.871 26.898,-4.729 6.66,-4.407 7.024,-9.841 5.713,-15.898 C 25.478,-1.084 14.953,4.105 8.119,1.978 5.596,1.186 2.963,0.711 0,0"
                   style="fill:#505050;fill-opacity:1;fill-rule:evenodd;stroke:none"
                   id="path484" />
              </g>
              <g
                 transform="translate(428.2822,1235.3945)"
                 id="g486">
                <path
                   inkscape:connector-curvature="0"
                   d="m 0,0 c 1.122,-4.527 2.094,-9.084 3.391,-13.575 3.042,-10.513 -2.827,-22.778 -10.498,-23.176 -9.533,-0.501 -24.616,-5.374 -31.431,8.101 12.444,4.265 16.548,15.968 25.121,23.706 C -9.494,-1.406 -7.561,5.237 0,0"
                   style="fill:#414141;fill-opacity:1;fill-rule:evenodd;stroke:none"
                   id="path488" />
              </g>
              <g
                 transform="translate(853.9502,1109.5576)"
                 id="g490">
                <path
                   inkscape:connector-curvature="0"
                   d="M 0,0 C -13.431,-13.143 -31.113,-15.805 -49.478,-16.811 -43.752,10.416 -37.098,12.67 0,0"
                   style="fill:#303030;fill-opacity:1;fill-rule:evenodd;stroke:none"
                   id="path492" />
              </g>
              <g
                 transform="translate(674.6484,211.0146)"
                 id="g494">
                <path
                   inkscape:connector-curvature="0"
                   d="M 0,0 C 4.813,18.104 -2.884,30.021 -21.579,36.502 -5.828,45.492 7.679,39.76 15.254,27.562 23.392,14.447 17.067,3.689 0,0"
                   style="fill:#747474;fill-opacity:1;fill-rule:evenodd;stroke:none"
                   id="path496" />
              </g>
              <g
                 transform="translate(1227.7056,668.7139)"
                 id="g498">
                <path
                   inkscape:connector-curvature="0"
                   d="m 0,0 c 12.711,16.809 28.196,32.463 24.557,55.533 -0.623,3.92 3.866,6.957 8.366,8.356 C 43.675,43.049 29.201,14.975 0,0"
                   style="fill:#646464;fill-opacity:1;fill-rule:evenodd;stroke:none"
                   id="path500" />
              </g>
              <g
                 transform="translate(960.2393,541.626)"
                 id="g502">
                <path
                   inkscape:connector-curvature="0"
                   d="M 0,0 C -20.834,-17.584 -34.634,-17.221 -45.496,1.18 -29.868,15.691 -15.192,-0.623 0,0"
                   style="fill:#6e6e6e;fill-opacity:1;fill-rule:evenodd;stroke:none"
                   id="path504" />
              </g>
              <g
                 transform="translate(875.1226,1056.5361)"
                 id="g506">
                <path
                   inkscape:connector-curvature="0"
                   d="m 0,0 c 1.025,3.516 0.915,6.857 -3.566,8.055 -10.182,2.728 -17.878,7.724 -13.851,18.31 5.07,13.315 14.629,-2.019 21.587,1.852 C 0.759,19.062 17.224,7.453 0,0"
                   style="fill:#515151;fill-opacity:1;fill-rule:evenodd;stroke:none"
                   id="path508" />
              </g>
              <g
                 transform="translate(563.1885,1280.5576)"
                 id="g510">
                <path
                   inkscape:connector-curvature="0"
                   d="m 0,0 c -12.489,-4.682 -25.744,-7.959 -36.158,-16.459 3.145,7.244 -14.098,15.387 -1.959,19.853 C -26.632,7.625 -10.952,15.785 0,0"
                   style="fill:#2b2b2b;fill-opacity:1;fill-rule:evenodd;stroke:none"
                   id="path512" />
              </g>
              <g
                 transform="translate(669.9746,399.0752)"
                 id="g514">
                <path
                   inkscape:connector-curvature="0"
                   d="M 0,0 C 10.155,-5.676 16.47,-14.887 13.411,-24.596 11.037,-32.148 -0.072,-32.975 -8.975,-32.707 -20.757,-18.418 -14.5,-8.262 0,0"
                   style="fill:#6d6d6d;fill-opacity:1;fill-rule:evenodd;stroke:none"
                   id="path516" />
              </g>
              <g
                 transform="translate(808.0254,1072.7217)"
                 id="g518">
                <path
                   inkscape:connector-curvature="0"
                   d="M 0,0 C 11.764,-4.809 6.407,10.49 14.164,10.307 33.19,-2.688 28.209,-12.396 9.475,-20.275 5.539,-13.82 -5.952,-10.318 0,0"
                   style="fill:#303030;fill-opacity:1;fill-rule:evenodd;stroke:none"
                   id="path520" />
              </g>
              <g
                 transform="translate(428.2822,1235.3945)"
                 id="g522">
                <path
                   inkscape:connector-curvature="0"
                   d="m 0,0 c -15.972,-6.034 -17.074,-28.787 -38.538,-28.65 2.457,3.156 6.692,6.153 7.074,9.506 C -29.577,-2.584 -20.329,3.354 0,0"
                   style="fill:#656565;fill-opacity:1;fill-rule:evenodd;stroke:none"
                   id="path524" />
              </g>
              <g
                 transform="translate(669.9746,399.0752)"
                 id="g526">
                <path
                   inkscape:connector-curvature="0"
                   d="m 0,0 c -0.551,-11.467 -12.101,-20.4 -8.975,-32.707 -12.671,2.674 -16.296,11.973 -12.619,20.824 C -18.728,-4.957 -13.825,6.348 0,0"
                   style="fill:#2b2b2b;fill-opacity:1;fill-rule:evenodd;stroke:none"
                   id="path528" />
              </g>
              <g
                 transform="translate(798.623,517.0791)"
                 id="g530">
                <path
                   inkscape:connector-curvature="0"
                   d="M 0,0 C -7.969,9.314 -19.311,16.674 -20.692,29.807 2.737,29.461 -0.232,13.803 0,0"
                   style="fill:#656565;fill-opacity:1;fill-rule:evenodd;stroke:none"
                   id="path532" />
              </g>
              <g
                 transform="translate(1339.5273,590.9287)"
                 id="g534">
                <path
                   inkscape:connector-curvature="0"
                   d="M 0,0 C -8.184,-11.932 -21.633,-4.479 -32.28,-7.328 -25.44,9.561 -14.214,10.318 0,0"
                   style="fill:#6d6d6d;fill-opacity:1;fill-rule:evenodd;stroke:none"
                   id="path536" />
              </g>
              <g
                 transform="translate(829.6274,361.6318)"
                 id="g538">
                <path
                   inkscape:connector-curvature="0"
                   d="m 0,0 c -12.458,0.572 -11.55,9.307 -12.386,16.977 5.505,2.543 11.73,4.597 16.1,-0.495 C 8.916,10.424 -0.824,5.963 0,0"
                   style="fill:#7e7e7e;fill-opacity:1;fill-rule:evenodd;stroke:none"
                   id="path540" />
              </g>
              <g
                 transform="translate(1334.9619,937.6143)"
                 id="g542">
                <path
                   inkscape:connector-curvature="0"
                   d="m 0,0 c -6.277,-1.893 -9.649,-11.697 -18.637,-6.051 -9.427,5.928 -0.454,11.694 0.565,17.531 C -11.096,8.912 -4.631,5.666 0,0"
                   style="fill:#393939;fill-opacity:1;fill-rule:evenodd;stroke:none"
                   id="path544" />
              </g>
              <g
                 transform="translate(1139.314,970.6982)"
                 id="g546">
                <path
                   inkscape:connector-curvature="0"
                   d="M 0,0 C -10.863,5.154 -25.626,7.027 -23.255,23.248 -8.242,21.574 -2.354,12.264 0,0"
                   style="fill:#565656;fill-opacity:1;fill-rule:evenodd;stroke:none"
                   id="path548" />
              </g>
              <g
                 transform="translate(2427.9922,1026.7139)"
                 id="g550">
                <path
                   inkscape:connector-curvature="0"
                   d="M 0,0 C 12.727,5.432 24.16,5.783 32.295,-6.855 20.99,-6.691 8.242,-12.213 0,0"
                   style="fill:#595959;fill-opacity:1;fill-rule:evenodd;stroke:none"
                   id="path552" />
              </g>
              <g
                 transform="translate(794.4663,974.1592)"
                 id="g554">
                <path
                   inkscape:connector-curvature="0"
                   d="M 0,0 C -9.046,-2.484 -18.079,-4.973 -27.124,-7.465 -21.762,6.195 -15.056,15.768 0,0"
                   style="fill:#585858;fill-opacity:1;fill-rule:evenodd;stroke:none"
                   id="path556" />
              </g>
            </g>
          </g>
        </g>
      </g>
    </g>
    <text
       xml:space="preserve"
       style="font-size:40px;font-style:normal;font-variant:normal;font-weight:normal;font-stretch:normal;line-height:125%;letter-spacing:0px;word-spacing:0px;fill:#000000;fill-opacity:1;stroke:none;font-family:Gentium;-inkscape-font-specification:Gentium"
       x="75.295265"
       y="937.3277"
       id="text14720"
       sodipodi:linespacing="125%"><tspan
         sodipodi:role="line"
         x="75.295265"
         y="937.3277"
         id="tspan14726"
         style="font-size:18px;font-style:normal;font-variant:normal;font-weight:normal;font-stretch:normal;font-family:Gentium;-inkscape-font-specification:Gentium">Alex Shure</tspan><tspan
         sodipodi:role="line"
         x="75.295265"
         y="959.8277"
         style="font-size:18px;font-style:normal;font-variant:normal;font-weight:normal;font-stretch:normal;font-family:Gentium;-inkscape-font-specification:Gentium"
         id="tspan14767">+49 151 52 716 901</tspan><tspan
         sodipodi:role="line"
         x="75.295265"
         y="982.3277"
         style="font-size:18px;font-style:normal;font-variant:normal;font-weight:normal;font-stretch:normal;font-family:Gentium;-inkscape-font-specification:Gentium"
         id="tspan14771">nowherekitchen.com</tspan></text>
    <a
       id="a14773">
      <text
         sodipodi:linespacing="125%"
         id="text14728"
         y="919.02679"
         x="60.187004"
         style="font-size:40px;font-style:normal;font-weight:normal;line-height:125%;letter-spacing:0px;word-spacing:0px;fill:#000000;fill-opacity:1;stroke:none;font-family:Sans"
         xml:space="preserve"><tspan
           style="font-style:normal;font-variant:normal;font-weight:normal;font-stretch:normal;font-family:cmex10;-inkscape-font-specification:cmex10"
           y="919.02679"
           x="60.187004"
           id="tspan14730"
           sodipodi:role="line">h  </tspan></text>
    </a>
    <a
       id="a14753"
       transform="translate(46.013777,21.438237)">
      <text
         sodipodi:linespacing="125%"
         id="text14728-1"
         y="897.72394"
         x="182.01894"
         style="font-size:40px;font-style:normal;font-weight:normal;line-height:125%;letter-spacing:0px;word-spacing:0px;fill:#000000;fill-opacity:1;stroke:none;font-family:Sans"
         xml:space="preserve"><tspan
           style="font-style:normal;font-variant:normal;font-weight:normal;font-stretch:normal;font-family:cmex10;-inkscape-font-specification:cmex10"
           y="897.72394"
           x="182.01894"
           id="tspan14730-4"
           sodipodi:role="line"> i  </tspan></text>
    </a>
  </g>
</svg>
